<?xml version="1.0" encoding="UTF-8" standalone="no"?>
<!-- Created with Inkscape (http://www.inkscape.org/) -->

<svg
   width="106.46345mm"
   height="39.381294mm"
   viewBox="0 0 106.46345 39.381294"
   version="1.1"
   id="svg1"
   xml:space="preserve"
   inkscape:version="1.4.2 (f4327f4, 2025-05-13)"
   sodipodi:docname="ARQLogo_text_only.svg"
   xmlns:inkscape="http://www.inkscape.org/namespaces/inkscape"
   xmlns:sodipodi="http://sodipodi.sourceforge.net/DTD/sodipodi-0.dtd"
   xmlns="http://www.w3.org/2000/svg"
   xmlns:svg="http://www.w3.org/2000/svg"><sodipodi:namedview
     id="namedview1"
     pagecolor="#ffffff"
     bordercolor="#000000"
     borderopacity="0.25"
     inkscape:showpageshadow="2"
     inkscape:pageopacity="0.0"
     inkscape:pagecheckerboard="0"
     inkscape:deskcolor="#d1d1d1"
     inkscape:document-units="mm"
     inkscape:zoom="1.5354385"
     inkscape:cx="163.79686"
     inkscape:cy="163.14558"
     inkscape:window-width="3840"
     inkscape:window-height="1529"
     inkscape:window-x="-8"
     inkscape:window-y="-8"
     inkscape:window-maximized="1"
     inkscape:current-layer="layer1" /><defs
     id="defs1"><inkscape:path-effect
       effect="fillet_chamfer"
       id="path-effect42"
       is_visible="true"
       lpeversion="1"
       nodesatellites_param="F,0,0,1,0,0,0,1 @ F,0,0,1,0,0,0,1 @ F,0,0,1,0,0,0,1 @ F,0,0,1,0,0,0,1"
       radius="0"
       unit="px"
       method="auto"
       mode="F"
       chamfer_steps="1"
       flexible="false"
       use_knot_distance="true"
       apply_no_radius="true"
       apply_with_radius="true"
       only_selected="false"
       hide_knots="false" /></defs><g
     inkscape:label="Layer 1"
     inkscape:groupmode="layer"
     id="layer1"
     transform="translate(-134.22855,-122.69418)"><path
       d="m 146.66139,126.88614 c -0.0969,0 -1.49908,3.36352 -3.11609,7.47448 -7.42247,18.87025 -9.31675,23.75007 -9.31675,24.00319 0,0.17403 1.40767,0.27233 3.90778,0.27233 h 3.90777 l 1.80867,-4.96094 c 0.99486,-2.72851 2.88773,-7.86535 4.20595,-11.41532 2.04371,-5.50378 2.35662,-6.55603 2.12545,-7.14375 -1.60113,-4.07064 -3.3815,-8.22999 -3.52278,-8.22999 z"
       id="path21"
       style="fill:#7c3aed;fill-opacity:1" /><path
       d="m 183.04419,123.39126 c -5.23875,0.0129 -9.61431,0.0303 -9.72345,0.0393 -0.24507,0.0196 -0.26717,34.78393 -0.0222,35.02887 0.097,0.097 1.76389,0.17673 3.70416,0.17673 h 3.52797 v -14.43478 -14.43426 l 5.66993,0.0806 c 5.24396,0.0747 5.72457,0.12179 6.39961,0.62632 1.34303,1.0038 1.78901,1.86225 1.90376,3.66437 0.12846,2.01743 -0.23524,3.26992 -1.21336,4.17701 -1.14747,1.06415 -2.21516,1.27072 -6.58151,1.27072 h -4.06177 v 3.16467 3.16518 l 2.42621,0.076 2.42621,0.0765 3.73569,6.21771 3.73569,6.21771 4.15685,0.0729 c 2.28623,0.0401 4.15685,0.0223 4.15685,-0.0393 0,-0.0616 -1.40507,-2.29704 -3.12229,-4.96766 -3.70556,-5.76289 -5.07976,-8.01733 -5.07876,-8.32972 5.4e-4,-0.12648 0.54695,-0.45463 1.2144,-0.72915 1.73092,-0.71191 4.14754,-3.03974 4.84931,-4.67104 0.75932,-1.76515 1.10612,-4.93478 0.80357,-7.34425 -0.55969,-4.45744 -3.12227,-7.303 -7.80572,-8.66821 -1.37478,-0.40074 -2.79328,-0.45655 -11.10113,-0.43615 z"
       id="path20"
       style="fill:#7c3aed;fill-opacity:1" /><path
       d="m 151.96442,123.18197 c -1.99363,0 -3.69094,0.0659 -3.77186,0.14677 -0.0809,0.0809 0.62975,2.07522 1.57923,4.43177 2.86017,7.09874 6.35898,16.4428 6.23631,16.65428 -0.0633,0.10913 -1.5222,0.19843 -3.24218,0.19843 h -3.12745 l -0.93845,2.71198 c -0.51642,1.49159 -1.01942,2.91806 -1.11724,3.16984 -0.16476,0.42411 0.24493,0.46306 5.5671,0.52916 l 5.74487,0.0713 1.16479,3.175 c 0.64063,1.74625 1.27943,3.44289 1.41955,3.77031 0.24814,0.57981 0.3588,0.59531 4.25142,0.59531 2.19806,0 3.95679,-0.0893 3.90829,-0.19844 -0.19551,-0.4399 -5.1733,-12.96607 -8.91057,-22.42343 -2.18522,-5.5298 -4.23513,-10.67925 -4.5558,-11.44323 l -0.58291,-1.38907 z"
       id="path19"
       style="fill:#7c3aed;fill-opacity:1" /><path
       id="path18"
       d="m 224.05449,122.71966 c -4.1282,-0.14014 -6.521,0.28282 -9.27902,1.64021 -4.94001,2.43129 -7.42914,6.59386 -8.02018,13.41159 -0.28889,3.33249 -0.0254,7.6037 0.6227,10.0831 1.40156,5.3622 5.25928,9.24574 10.59108,10.66292 2.49449,0.66303 6.7698,0.78333 9.12813,0.25683 0.002,-3.8e-4 0.003,-0.001 0.005,-0.002 l -4.81159,-6.2513 c -4.41843,-0.20421 -6.83109,-2.23317 -7.78195,-6.5071 -0.6449,-2.89873 -0.42752,-9.93014 0.37052,-11.98428 0.78021,-2.00828 1.90548,-3.27424 3.69021,-4.15065 1.38472,-0.67997 1.76815,-0.74456 4.4266,-0.74156 2.39073,0.002 3.12541,0.10178 4.11448,0.55708 3.54964,1.63402 4.99741,4.91603 5.00641,11.34659 0.004,2.91322 -0.38302,5.43114 -1.0759,6.99751 l -0.52193,1.17925 -1.07074,-1.50843 -1.07022,-1.50895 h -3.81527 c -2.09851,0 -3.81574,0.0552 -3.81578,0.12299 l 12.12432,15.75201 h 3.91139 c 3.29403,0 4.05713,-0.0674 3.8871,-0.34365 -0.11637,-0.18904 -1.38361,-1.79486 -2.81636,-3.56826 l -2.60501,-3.22461 0.95033,-1.29398 c 2.44632,-3.33255 3.40524,-6.92597 3.39824,-12.73617 -0.009,-7.71941 -1.95941,-12.45292 -6.37636,-15.47089 -2.79166,-1.90745 -5.05658,-2.57918 -9.16636,-2.7187 z"
       style="fill:#7c3aed;fill-opacity:1" /></g></svg>
