<?xml version="1.0" encoding="UTF-8" standalone="no"?>
<!-- Created with Inkscape (http://www.inkscape.org/) -->

<svg
   width="52.980125mm"
   height="40.890808mm"
   viewBox="0 0 52.980125 40.890808"
   version="1.1"
   id="svg1"
   xml:space="preserve"
   inkscape:version="1.4.2 (f4327f4, 2025-05-13)"
   sodipodi:docname="ARQLogo_coloured.svg"
   xmlns:inkscape="http://www.inkscape.org/namespaces/inkscape"
   xmlns:sodipodi="http://sodipodi.sourceforge.net/DTD/sodipodi-0.dtd"
   xmlns="http://www.w3.org/2000/svg"
   xmlns:svg="http://www.w3.org/2000/svg"><sodipodi:namedview
     id="namedview1"
     pagecolor="#000000"
     bordercolor="#000000"
     borderopacity="0.25"
     inkscape:showpageshadow="2"
     inkscape:pageopacity="0.0"
     inkscape:pagecheckerboard="0"
     inkscape:deskcolor="#d1d1d1"
     inkscape:document-units="mm"
     inkscape:zoom="2.3643238"
     inkscape:cx="388.90612"
     inkscape:cy="71.267734"
     inkscape:window-width="3840"
     inkscape:window-height="1529"
     inkscape:window-x="-8"
     inkscape:window-y="-8"
     inkscape:window-maximized="1"
     inkscape:current-layer="layer1" /><defs
     id="defs1"><inkscape:path-effect
       effect="fillet_chamfer"
       id="path-effect42"
       is_visible="true"
       lpeversion="1"
       nodesatellites_param="F,0,0,1,0,0,0,1 @ F,0,0,1,0,0,0,1 @ F,0,0,1,0,0,0,1 @ F,0,0,1,0,0,0,1"
       radius="0"
       unit="px"
       method="auto"
       mode="F"
       chamfer_steps="1"
       flexible="false"
       use_knot_distance="true"
       apply_no_radius="true"
       apply_with_radius="true"
       only_selected="false"
       hide_knots="false" /></defs><g
     inkscape:label="Layer 1"
     inkscape:groupmode="layer"
     id="layer1"
     transform="translate(-86.857428,-106.85748)"><g
       id="g3"
       transform="translate(0,1.2261295)"><path
         d="m 114.32567,135.69992 c -3.83734,-0.0704 -6.14377,0.0886 -9.21286,0.6351 -6.62213,1.17923 -12.170467,3.68241 -15.801974,7.12945 -1.224624,1.16242 -2.575606,2.76015 -2.444575,2.89119 0.0292,0.0292 0.612416,-0.30982 1.295817,-0.75342 1.581788,-1.02675 4.646622,-2.58093 6.611125,-3.3523 3.878134,-1.52274 8.059447,-2.54035 12.725667,-3.09726 2.37613,-0.2836 8.70842,-0.32591 11.0024,-0.0735 7.52,0.8273 14.7247,3.20315 19.95015,6.57876 0.72907,0.47098 1.34741,0.85945 1.37401,0.86396 0.10145,0.0165 -0.44677,-0.75685 -1.15989,-1.63654 -2.95335,-3.64313 -9.20148,-6.89332 -15.95421,-8.29891 -3.14819,-0.65531 -4.6943,-0.8187 -8.38566,-0.8865 z"
         id="path17"
         style="fill:#7c3aed;fill-opacity:1;stroke-width:0.501011" /><path
         d="m 94.214915,117.2446 c -0.356704,1.3e-4 0.03855,5.03031 0.43615,5.40949 0.50144,0.47819 5.910245,2.7736 9.486765,4.02611 3.28681,1.15106 8.60183,2.55036 11.85974,3.12229 3.05482,0.53628 12.25472,0.33103 14.80427,-0.33022 2.10373,-0.54561 2.42124,-0.82568 2.42724,-2.1456 0.004,-0.86763 -7.2e-4,-0.87109 -0.98806,-0.66921 -0.5457,0.11163 -3.07577,0.1877 -5.62239,0.1695 -10.25613,-0.0734 -19.90921,-2.72008 -29.765633,-8.16178 -1.30969,-0.72307 -2.488822,-1.36045 -2.620512,-1.41645 -0.006,-0.003 -0.01191,-0.004 -0.01757,-0.004 z"
         id="path10"
         style="fill:#7c3aed;fill-opacity:1" /><path
         d="m 94.807127,110.60262 c -0.03189,0.002 -0.05309,0.0164 -0.06304,0.0444 -0.23663,0.66692 -0.665143,3.7932 -0.667143,4.8674 -0.002,1.07289 0.0013,1.07663 2.180746,2.27738 7.74035,4.2646 17.23816,7.41861 24.80469,8.23722 1.62564,0.17586 10.75009,0.19134 11.60859,0.0196 0.6376,-0.12752 0.82683,-0.30416 0.82683,-0.77205 0,-1.38158 -0.13196,-1.44384 -3.0577,-1.44384 -1.50495,0 -4.14123,-0.18322 -5.85856,-0.40721 -12.76312,-1.6647 -22.0845,-5.38851 -27.661875,-11.05048 -1.138358,-1.15563 -1.889264,-1.78381 -2.112533,-1.77251 z"
         id="path6"
         style="fill:#7c3aed;fill-opacity:1" /><g
         id="g2"><path
           d="m 95.21072,128.93691 c -0.145412,0.0133 -0.538033,0.54806 -0.899686,1.23145 l -0.689881,1.30379 0.954464,0.89245 c 0.52496,0.49109 1.413566,1.28034 1.974556,1.75339 0.56098,0.47304 1.075917,0.80407 1.144117,0.73587 0.06821,-0.0682 -0.08225,-0.52226 -0.334347,-1.00873 -0.2521,-0.48646 -0.782956,-1.77254 -1.179256,-2.85822 -0.3963,-1.08568 -0.82401,-2.00714 -0.95033,-2.04794 -0.0059,-0.002 -0.01248,-0.003 -0.01964,-0.002 z"
           id="path16"
           style="fill:#7c3aed;fill-opacity:1" /><path
           d="m 95.957962,128.80875 c -0.01347,3e-4 -0.0228,0.003 -0.02739,0.007 -0.0018,0.002 -0.0031,0.005 -0.0031,0.007 2.1e-4,0.0932 0.511022,1.47788 1.135332,3.07733 0.85095,2.18009 1.29782,2.99078 1.78542,3.23753 0.86691,0.43867 1.982426,0.41968 5.433266,-0.0915 3.52289,-0.52183 13.50007,-0.60581 17.53226,-0.14779 2.4977,0.28371 2.91915,0.26374 4.84467,-0.22789 2.97901,-0.7606 4.91136,-1.52658 5.1015,-2.0221 0.0897,-0.2337 0.10986,-0.47771 0.045,-0.54261 -0.0649,-0.0649 -1.52618,0.21173 -3.24735,0.61444 -4.15547,0.97225 -11.17699,1.19295 -16.07499,0.50591 -4.11344,-0.57699 -10.52451,-2.2053 -13.903036,-3.53157 -1.322252,-0.51905 -2.426276,-0.89013 -2.621542,-0.88573 z"
           id="path15"
           style="fill:#7c3aed;fill-opacity:1" /><path
           d="m 93.884186,123.56669 c -0.167748,0.004 -0.738026,0.75653 -1.417484,1.88567 -1.290204,2.14408 -1.321553,2.24297 -0.95343,3.01791 0.20936,0.44072 0.703147,1.18485 1.097607,1.65364 0.39446,0.46879 0.764155,0.85266 0.821655,0.85266 2.25e-4,0 7.99e-4,3e-5 10e-4,0 0.06217,-0.0104 0.448718,-0.68193 0.862996,-1.5012 l 0.759127,-1.50171 -0.501261,-2.00401 c -0.27551,-1.10243 -0.557752,-2.16866 -0.627352,-2.36937 -0.0079,-0.0228 -0.02229,-0.034 -0.04289,-0.0336 z"
           id="path14"
           style="fill:#7c3aed;fill-opacity:1" /><path
           d="m 94.700157,123.41993 c -0.02387,1e-4 -0.04021,0.004 -0.04858,0.0124 -0.0892,0.0892 0.07427,1.0788 0.362769,2.19935 0.50896,1.97681 0.5594,2.05496 1.71049,2.62723 3.106014,1.54417 11.052624,3.6775 16.400034,4.40283 3.32654,0.45122 10.396,0.53948 12.58528,0.1571 0.86348,-0.15082 2.67835,-0.51935 4.03334,-0.81907 2.13207,-0.47161 2.49703,-0.63302 2.71198,-1.19838 0.49854,-1.31126 0.38099,-1.37796 -1.50223,-0.85576 -5.61641,1.55738 -15.01512,0.95612 -23.12004,-1.47898 -3.48525,-1.04713 -8.6486,-3.00857 -10.941449,-4.15633 -1.035708,-0.51846 -1.960877,-0.89138 -2.191598,-0.89039 z"
           id="path13"
           style="fill:#7c3aed;fill-opacity:1" /><path
           d="m 93.148831,117.40118 -1.176156,1.67793 c -0.64702,0.92308 -1.525241,2.07531 -1.951302,2.56057 -0.662013,0.75399 -0.751016,1.02869 -0.613399,1.88929 0.08857,0.55387 0.41552,1.62068 0.727087,2.3704 0.311566,0.74971 0.661029,1.30471 0.77618,1.23351 0.11515,-0.0712 0.774741,-1.10983 1.466061,-2.30838 1.34394,-2.32999 1.387993,-2.60622 0.954463,-5.99344 z"
           id="path12"
           style="fill:#7c3aed;fill-opacity:1" /><path
           d="m 109.96125,113.27068 c -0.55751,0.0316 -0.80512,1.08321 -0.80512,3.31453 0,2.42497 0.005,2.4425 0.7276,2.6944 0.40018,0.1394 0.82137,0.1687 0.93586,0.0651 0.11449,-0.10358 0.17399,-1.41521 0.13229,-2.91507 -0.0639,-2.29575 -0.15164,-2.77355 -0.55448,-3.01997 -0.16244,-0.0994 -0.3075,-0.14631 -0.43615,-0.13901 z"
           id="path8"
           style="fill:#7c3aed;fill-opacity:1" /><path
           d="m 116.89777,112.29865 c -0.28544,0.28544 -0.94354,8.3836 -0.70073,8.62272 0.25153,0.2477 4.67337,1.16112 7.51117,1.55133 3.37801,0.46449 3.09179,0.64628 3.30936,-2.10271 0.10462,-1.32234 0.0874,-2.50104 -0.0382,-2.61948 -0.5388,-0.50816 -9.94085,-5.59256 -10.08156,-5.45186 z"
           id="path7"
           style="fill:#7c3aed;fill-opacity:1" /><path
           d="m 94.158071,110.47137 -0.588077,0.51986 c -1.01254,0.8949 -3.003418,4.11801 -3.659209,5.9247 -0.345663,0.95229 -0.698331,2.48158 -0.783931,3.39825 -0.08562,0.91666 -0.08931,1.66656 -0.0083,1.66656 0.08104,0 1.038642,-1.22332 2.128035,-2.71818 l 1.980758,-2.71766 0.293522,-2.37557 c 0.16155,-1.30642 0.371305,-2.67271 0.465605,-3.03651 z"
           id="path5"
           style="fill:#7c3aed;fill-opacity:1" /><path
           d="m 109.65894,107.93405 -0.97875,0.786 c -0.5385,0.43228 -1.82883,1.65804 -2.86753,2.72387 -1.84406,1.89223 -1.89289,1.97677 -2.06499,3.60133 l -0.17621,1.66398 1.77198,0.80357 c 2.11191,0.95759 2.21505,0.88106 2.22105,-1.64796 0.003,-1.36591 0.12449,-1.90335 0.55243,-2.4474 0.66291,-0.84275 1.76354,-0.92087 2.6634,-0.18914 0.60024,0.48806 0.62174,0.62655 0.54674,3.55276 l -0.078,3.04529 1.26866,0.38809 c 1.72182,0.52663 2.13595,0.5233 2.29185,-0.0196 0.2403,-0.83691 0.77928,-8.20037 0.6289,-8.59224 -0.0808,-0.2107 -1.41422,-1.12217 -2.96312,-2.02571 z"
           id="path4"
           style="fill:#7c3aed;fill-opacity:1" /><path
           d="m 109.31116,105.63135 -3.5264,3.32745 c -3.12883,2.95251 -3.48157,3.37177 -3.13056,3.72277 0.35101,0.35101 0.71705,0.0996 3.25045,-2.23294 1.57018,-1.44566 3.04788,-2.77818 3.28403,-2.96106 0.44128,-0.34173 2.66663,0.85643 14.38724,7.74526 2.03729,1.19742 3.94229,2.30899 4.23333,2.47014 0.7226,0.4001 1.10705,0.37935 1.279,-0.0687 0.15001,-0.39093 -3.77492,-2.81845 -14.62909,-9.04803 z"
           id="path2"
           style="fill:#7c3aed;fill-opacity:1" /></g></g></g></svg>
