<?xml version="1.0" encoding="UTF-8" standalone="no"?>
<!-- Created with Inkscape (http://www.inkscape.org/) -->

<svg
   width="35.411221mm"
   height="35.454189mm"
   viewBox="0 0 35.411221 35.454189"
   version="1.1"
   id="svg1"
   xml:space="preserve"
   inkscape:version="1.4.2 (f4327f4, 2025-05-13)"
   sodipodi:docname="ARQLogo_favicon.svg"
   xmlns:inkscape="http://www.inkscape.org/namespaces/inkscape"
   xmlns:sodipodi="http://sodipodi.sourceforge.net/DTD/sodipodi-0.dtd"
   xmlns="http://www.w3.org/2000/svg"
   xmlns:svg="http://www.w3.org/2000/svg"><sodipodi:namedview
     id="namedview1"
     pagecolor="#000000"
     bordercolor="#000000"
     borderopacity="0.25"
     inkscape:showpageshadow="2"
     inkscape:pageopacity="0.0"
     inkscape:pagecheckerboard="0"
     inkscape:deskcolor="#d1d1d1"
     inkscape:document-units="mm"
     inkscape:zoom="2.1465832"
     inkscape:cx="267.16878"
     inkscape:cy="120.42394"
     inkscape:window-width="3840"
     inkscape:window-height="1529"
     inkscape:window-x="-8"
     inkscape:window-y="-8"
     inkscape:window-maximized="1"
     inkscape:current-layer="layer1" /><defs
     id="defs1"><inkscape:path-effect
       effect="fillet_chamfer"
       id="path-effect42"
       is_visible="true"
       lpeversion="1"
       nodesatellites_param="F,0,0,1,0,0,0,1 @ F,0,0,1,0,0,0,1 @ F,0,0,1,0,0,0,1 @ F,0,0,1,0,0,0,1"
       radius="0"
       unit="px"
       method="auto"
       mode="F"
       chamfer_steps="1"
       flexible="false"
       use_knot_distance="true"
       apply_no_radius="true"
       apply_with_radius="true"
       only_selected="false"
       hide_knots="false" /></defs><g
     inkscape:label="Layer 1"
     inkscape:groupmode="layer"
     id="layer1"
     transform="translate(-61.43387,-106.62092)"><g
       id="g1"
       transform="translate(-112.55015,-5.0796842)"><path
         d="m 186.41685,115.40479 c -0.0969,0 -1.49907,3.36352 -3.11609,7.47448 -7.42247,18.87025 -9.31674,23.75007 -9.31674,24.00319 0,0.17403 1.40767,0.27233 3.90777,0.27233 h 3.90777 l 1.80868,-4.96094 c 0.99486,-2.72851 2.88773,-7.86535 4.20594,-11.41532 2.04372,-5.50378 2.35663,-6.55603 2.12546,-7.14375 -1.60113,-4.07064 -3.3815,-8.22999 -3.52279,-8.22999 z"
         id="path21"
         style="fill:#7c3aed;fill-opacity:1" /><path
         d="m 191.71989,111.70062 c -1.99364,0 -3.69094,0.0659 -3.77186,0.14677 -0.0809,0.0809 0.62974,2.07522 1.57923,4.43177 2.86017,7.09874 6.35898,16.4428 6.23631,16.65428 -0.0633,0.10913 -1.5222,0.19843 -3.24218,0.19843 h -3.12746 l -0.93844,2.71198 c -0.51642,1.49159 -1.01943,2.91806 -1.11725,3.16984 -0.16476,0.42411 0.24494,0.46306 5.56711,0.52916 l 5.74486,0.0713 1.16479,3.175 c 0.64063,1.74625 1.27943,3.44289 1.41955,3.77031 0.24815,0.57981 0.35881,0.59531 4.25142,0.59531 2.19806,0 3.95679,-0.0893 3.90829,-0.19844 -0.19551,-0.4399 -5.17329,-12.96607 -8.91057,-22.42343 -2.18521,-5.5298 -4.23512,-10.67925 -4.55579,-11.44323 l -0.58291,-1.38907 z"
         id="path19"
         style="fill:#7c3aed;fill-opacity:1" /></g></g></svg>
